<svg xmlns="http://www.w3.org/2000/svg" xmlns:xlink="http://www.w3.org/1999/xlink" version="1.1" id="Your_Icon" x="0px" y="0px" width="100px" height="100px" viewBox="0 0 100 100" enable-background="new 0 0 100 100" xml:space="preserve">
<path fill="#000000" d="M100,45.5c0-3.025-2.475-5.5-5.5-5.5h-6.577l-4.769-12.4c-1.185-3.08-4.75-6.342-7.924-7.249  C75.23,20.352,67,18,50,18s-25.231,2.352-25.231,2.352c-3.173,0.907-6.738,4.168-7.923,7.249L12.077,40H5.5  C2.475,40,0,42.475,0,45.5S2.475,51,5.5,51h2.346l-1.692,4.4C4.969,58.479,4,63.7,4,67v26c0,3.85,3.15,7,7,7s7-3.15,7-7v-4h64v4  c0,3.85,3.15,7,7,7s7-3.15,7-7V67c0-3.3-0.97-8.521-2.154-11.6L92.153,51H94.5C97.525,51,100,48.525,100,45.5z M17.691,47.124  l5.617-15.247C23.689,30.845,24.9,30,26,30h48c1.1,0,2.312,0.845,2.691,1.876l5.617,15.247C82.688,48.155,82.1,49,81,49H19  C17.9,49,17.311,48.155,17.691,47.124z M17.5,72c-3.038,0-5.5-2.465-5.5-5.5s2.462-5.5,5.5-5.5c3.037,0,5.5,2.465,5.5,5.5  S20.537,72,17.5,72z M82.5,72c-3.038,0-5.5-2.462-5.5-5.5s2.462-5.5,5.5-5.5s5.5,2.462,5.5,5.5S85.538,72,82.5,72z"/>
</svg>